<svg xmlns="http://www.w3.org/2000/svg" viewBox="0 0 100 100" fill="none">
  <defs>
    <linearGradient id="grad1" x1="0%" y1="0%" x2="100%" y2="100%">
      <stop offset="0%" style="stop-color:#4F46E5;stop-opacity:1" />
      <stop offset="100%" style="stop-color:#9333EA;stop-opacity:1" />
    </linearGradient>
  </defs>
  <circle cx="50" cy="50" r="45" fill="url(#grad1)" />
  <path d="M50 30C30 30 15 50 15 50C15 50 30 70 50 70C70 70 85 50 85 50C85 50 70 30 50 30ZM50 63C42.82 63 37 57.18 37 50C37 42.82 42.82 37 50 37C57.18 37 63 42.82 63 50C63 57.18 57.18 63 50 63ZM50 45C47.24 45 45 47.24 45 50C45 52.76 47.24 55 50 55C52.76 55 55 52.76 55 50C55 47.24 52.76 45 50 45Z" fill="white" />
</svg>